<svg width="24" height="22" viewBox="0 0 24 22" fill="none" xmlns="http://www.w3.org/2000/svg">
<path d="M2.5 9.5C5 11.8333 11.3 15.1 16.5 9.5" stroke="black"/>
<path d="M4.06667 10.8293C4.03762 10.9874 4.01005 11.3695 3.85645 11.4817C3.71224 11.5871 3.50107 11.6131 3.41063 11.7789C3.26112 12.053 3.20095 12.3086 3.08804 12.5908" stroke="black" stroke-linecap="round" stroke-linejoin="round"/>
<path d="M6.93731 12.3085C6.90135 12.8839 6.65826 13.3819 6.29214 13.8091C6.07368 14.0639 6.02214 14.3986 5.8282 14.6572" stroke="black" stroke-linecap="round" stroke-linejoin="round"/>
<path d="M12.1566 12.3737C12.488 12.6728 12.6259 13.0563 12.7402 13.4756C12.8189 13.7641 13.0272 13.9191 13.1353 14.1353" stroke="black" stroke-linecap="round" stroke-linejoin="round"/>
<path d="M15.2883 10.8732C15.7967 11.2579 15.9258 11.3438 16.1038 11.9134C16.1488 12.0575 16.1597 12.2433 16.3321 12.2433" stroke="black" stroke-linecap="round" stroke-linejoin="round"/>
</svg>
