<svg width="10" height="12" viewBox="0 0 10 12" fill="none" xmlns="http://www.w3.org/2000/svg">
<path d="M9.68075 4.84038C9.68075 8.60511 4.84038 11.832 4.84038 11.832C4.84038 11.832 0 8.60511 0 4.84038C1.91293e-08 3.55663 0.509967 2.32546 1.41771 1.41771C2.32546 0.509967 3.55663 0 4.84038 0C6.12412 0 7.35529 0.509967 8.26304 1.41771C9.17079 2.32546 9.68075 3.55663 9.68075 4.84038Z" fill="#8E94A7"/>
<path d="M4.84037 6.45385C5.73146 6.45385 6.45383 5.73148 6.45383 4.84039C6.45383 3.9493 5.73146 3.22693 4.84037 3.22693C3.94928 3.22693 3.22691 3.9493 3.22691 4.84039C3.22691 5.73148 3.94928 6.45385 4.84037 6.45385Z" fill="white"/>
</svg>
